<svg xmlns="http://www.w3.org/2000/svg" viewBox="0 0 80 80">
  <!-- マウスピース -->
  <ellipse cx="8" cy="42" rx="4" ry="3" fill="#C9A84C" stroke="#B89820" stroke-width="1.5"/>
  <rect x="10" y="40" width="6" height="4" rx="1" fill="#DAA520" stroke="#B89820" stroke-width="1"/>

  <!-- 左側の細管 -->
  <rect x="15" y="40" width="10" height="4" rx="2" fill="#DAA520" stroke="#B89820" stroke-width="1"/>

  <!-- バルブ3つ -->
  <rect x="25" y="36" width="22" height="12" rx="3" fill="#DAA520" stroke="#B89820" stroke-width="1.5"/>
  <rect x="27" y="30" width="5" height="8" rx="2.5" fill="#E84040" stroke="#B82020" stroke-width="1.5"/>
  <rect x="35" y="30" width="5" height="8" rx="2.5" fill="#E84040" stroke="#B82020" stroke-width="1.5"/>
  <rect x="43" y="30" width="5" height="8" rx="2.5" fill="#E84040" stroke="#B82020" stroke-width="1.5"/>

  <!-- 下のループ管 -->
  <path d="M26 48 Q20 48 18 54 Q16 60 22 62 Q30 64 34 56 Q36 50 47 50" stroke="#DAA520" stroke-width="4" fill="none" stroke-linecap="round"/>

  <!-- バルブ右から朝顔へつなぐ管 -->
  <rect x="47" y="40" width="8" height="4" rx="2" fill="#DAA520" stroke="#B89820" stroke-width="1"/>

  <!-- 朝顔（ベル） -->
  <path d="M54 30 Q56 28 62 30 Q70 33 74 42 Q70 51 62 54 Q56 56 54 54 Q52 50 53 42 Q52 34 54 30Z" fill="#DAA520" stroke="#B89820" stroke-width="1.5"/>
  <ellipse cx="73" cy="42" rx="4" ry="9" fill="#FFE860" opacity="0.45"/>

  <!-- 輝き -->
  <path d="M58 31 Q65 29 70 34" stroke="#FFF8DC" stroke-width="1.5" fill="none" opacity="0.5" stroke-linecap="round"/>
</svg>
